<svg viewBox="0 0 96 96" xmlns="http://www.w3.org/2000/svg" xmlns:xlink="http://www.w3.org/1999/xlink" id="Icons_Projector" overflow="hidden"><path d="M84 45.8 64 45.8C62.9 45.8 62 44.9 62 43.8 62 42.7 62.9 41.8 64 41.8L84 41.8C85.1 41.8 86 42.7 86 43.8 86 44.9 85.1 45.8 84 45.8ZM84 55.8 64 55.8C62.9 55.8 62 54.9 62 53.8 62 52.7 62.9 51.8 64 51.8L84 51.8C85.1 51.8 86 52.7 86 53.8 86 54.9 85.1 55.8 84 55.8ZM39 63.8C29.6 63.8 22 56.2 22 46.8 22 37.4 29.6 29.8 39 29.8 48.4 29.8 56 37.4 56 46.8 56 56.2 48.4 63.8 39 63.8ZM11 41.3C9.9 41.3 9 40.4 9 39.3 9 38.2 9.9 37.3 11 37.3 12.1 37.3 13 38.2 13 39.3 13 40.4 12.1 41.3 11 41.3ZM88 32.3 86 32.3 86 33.8C86 34.9 85.1 35.8 84 35.8 82.9 35.8 82 34.9 82 33.8L82 32.3 76 32.3 76 33.8C76 34.9 75.1 35.8 74 35.8 72.9 35.8 72 34.9 72 33.8L72 32.3 66 32.3 66 33.8C66 34.9 65.1 35.8 64 35.8 62.9 35.8 62 34.9 62 33.8L62 32.3 54.2 32.3C50.2 28.1 44.8 25.8 39 25.8 33.3 25.8 27.8 28.1 23.8 32.3L8 32.3C5.8 32.3 4 34.1 4 36.3L4 60.3C4 62.5 5.8 64.3 8 64.3L14 64.3 12 70.3 18 70.3 20 64.3 27.4 64.3C34.4 69 43.6 69 50.6 64.3L76 64.3 78 70.3 84 70.3 82 64.3 88 64.3C90.2 64.3 92 62.5 92 60.3L92 36.3C92 34 90.2 32.3 88 32.3Z" stroke="none" stroke-width="0.999927" stroke-linecap="butt" stroke-opacity="1" fill="#7F7F7F" fill-opacity="1"/><circle cx="39" cy="46.5" r="12.6" stroke="none" stroke-width="0.999927" stroke-linecap="butt" stroke-opacity="1" fill="#7F7F7F" fill-opacity="1"/></svg>